<svg xmlns="http://www.w3.org/2000/svg" viewBox="0 0 512 512"><style>:root{--bg:#ffffff;--fg:#111114}@media (prefers-color-scheme:dark){:root{--bg:#111114;--fg:#ffffff}}</style><rect x="6" y="6" width="500" height="500" rx="104" fill="var(--bg)" stroke="#dfe1e4" stroke-width="2"/><g fill="var(--fg)" fill-rule="evenodd"><path d="
  M 470 284
  L 470 400 Q 470 470 400 470 L 284 470
  C 300 392 332 332 256 256
  C 332 332 392 300 470 284 Z
  M 322 322
  C 360 332 404 376 414 414
  C 376 404 332 360 322 322 Z
  M 360 360 L 410 360 L 410 410 L 360 410 Z
" transform="rotate(0 256 256)"/><path d="
  M 470 284
  L 470 400 Q 470 470 400 470 L 284 470
  C 300 392 332 332 256 256
  C 332 332 392 300 470 284 Z
  M 322 322
  C 360 332 404 376 414 414
  C 376 404 332 360 322 322 Z
  M 360 360 L 410 360 L 410 410 L 360 410 Z
" transform="rotate(90 256 256)"/><path d="
  M 470 284
  L 470 400 Q 470 470 400 470 L 284 470
  C 300 392 332 332 256 256
  C 332 332 392 300 470 284 Z
  M 322 322
  C 360 332 404 376 414 414
  C 376 404 332 360 322 322 Z
  M 360 360 L 410 360 L 410 410 L 360 410 Z
" transform="rotate(180 256 256)"/><path d="
  M 470 284
  L 470 400 Q 470 470 400 470 L 284 470
  C 300 392 332 332 256 256
  C 332 332 392 300 470 284 Z
  M 322 322
  C 360 332 404 376 414 414
  C 376 404 332 360 322 322 Z
  M 360 360 L 410 360 L 410 410 L 360 410 Z
" transform="rotate(270 256 256)"/></g></svg>