<svg xmlns="http://www.w3.org/2000/svg" viewBox="0 0 510 510"><style>.c{fill:#ffffff;stroke:#dfe1e4;stroke-width:2}.m{fill:#111114}@media(prefers-color-scheme:dark){.c{fill:#111114;stroke:#2a2c30}.m{fill:#ffffff}}</style><rect class="c" x="2" y="2" width="506" height="506" rx="47.5"/><path class="m" d="M155.109 41H39L42.0395 154.726C47.8753 218.166 97.1556 245.091 121.066 250.624C141.005 257.509 208.806 253.493 240.214 250.624C227.084 243.247 202.525 234.026 187.935 229.108C144.774 219.273 123.295 185.462 124.106 170.094V122.145H161.188C196.203 120.178 213.467 149.193 217.722 163.947C222.585 192.47 240.012 227.879 248.117 242.018C252.98 227.756 254.196 175.831 254.196 151.652C250.305 66.0811 186.517 42.2295 155.109 41Z"/><path class="m" d="M353.891 41H470L466.961 154.726C461.125 218.166 411.844 245.091 387.934 250.624C367.995 257.509 300.194 253.493 268.786 250.624C281.916 243.247 306.475 234.026 321.065 229.108C364.226 219.273 385.705 185.462 384.894 170.094V122.145H347.812C312.797 120.178 295.533 149.193 291.278 163.947C286.415 192.47 268.988 227.879 260.883 242.018C256.02 227.756 254.804 175.831 254.804 151.652C258.695 66.0811 322.483 42.2295 353.891 41Z"/><path class="m" d="M353.891 468.353H470L466.961 354.627C461.125 291.187 411.844 264.261 387.934 258.729C367.995 251.844 300.194 255.86 268.786 258.729C281.916 266.105 306.475 275.326 321.065 280.244C364.226 290.08 385.705 323.89 384.894 339.259V387.208H347.812C312.797 389.175 295.533 360.16 291.278 345.406C286.415 316.882 268.988 281.474 260.883 267.335C256.02 281.597 254.804 333.521 254.804 357.701C258.695 443.271 322.483 467.123 353.891 468.353Z"/><path class="m" d="M155.109 468.353H39L42.0395 354.627C47.8753 291.187 97.1556 264.261 121.066 258.729C141.005 251.844 208.806 255.86 240.214 258.729C227.084 266.105 202.525 275.326 187.935 280.244C144.774 290.08 123.295 323.89 124.106 339.259V387.208H161.188C196.203 389.175 213.467 360.16 217.722 345.406C222.585 316.882 240.012 281.474 248.117 267.335C252.98 281.597 254.196 333.521 254.196 357.701C250.305 443.271 186.517 467.123 155.109 468.353Z"/></svg>