<svg xmlns="http://www.w3.org/2000/svg" viewBox="0 0 1200 760" width="1200" height="760" font-family="system-ui, -apple-system, 'Segoe UI', sans-serif"><rect width="1200" height="760" fill="#ffffff"/><defs><marker id="arr" viewBox="0 0 10 10" refX="8" refY="5" markerWidth="7" markerHeight="7" orient="auto-start-reverse"><path d="M0 0 L10 5 L0 10 z" fill="#9a9387"/></marker><marker id="ara" viewBox="0 0 10 10" refX="8" refY="5" markerWidth="7" markerHeight="7" orient="auto-start-reverse"><path d="M0 0 L10 5 L0 10 z" fill="#c2603f"/></marker></defs><text x="40" y="52" font-size="30" fill="#16171b" font-weight="700" text-anchor="start" font-family="system-ui, -apple-system, 'Segoe UI', sans-serif">Information architecture</text><text x="40" y="82" font-size="15" fill="#6f685d" font-weight="400" text-anchor="start" font-family="system-ui, -apple-system, 'Segoe UI', sans-serif">Five surfaces for one loop, plus a deep settings spine. Flat and shallow by design.</text><rect x="40" y="120" width="250" height="64" rx="16" fill="#faf9f6" stroke="#e6e1d8" stroke-width="1.5"/><circle cx="64" cy="150" r="5" fill="#c2603f"/><text x="80" y="154" font-size="16.5" fill="#16171b" font-weight="700" text-anchor="start" font-family="system-ui, -apple-system, 'Segoe UI', sans-serif">Forage</text><text x="62" y="178" font-size="13" fill="#6f685d" font-weight="400" text-anchor="start" font-family="system-ui, -apple-system, 'Segoe UI', sans-serif">Local-first workspace</text><line x1="165" y1="184" x2="165" y2="220" stroke="#9a9387" stroke-width="2"/><line x1="165" y1="220" x2="1057.0" y2="220" stroke="#9a9387" stroke-width="2"/><line x1="145.0" y1="220" x2="145.0" y2="240" stroke="#9a9387" stroke-width="2"/><rect x="40" y="240" width="210" height="58" rx="16" fill="#ffffff" stroke="#e6e1d8" stroke-width="1.5"/><circle cx="64" cy="270" r="5" fill="#4f6d8c"/><text x="80" y="274.0" font-size="16.5" fill="#16171b" font-weight="700" text-anchor="start" font-family="system-ui, -apple-system, 'Segoe UI', sans-serif">Library</text><rect x="40" y="318" width="210" height="40" rx="10" fill="#fbfaf7" stroke="#e6e1d8" stroke-width="1.5"/><text x="56" y="343" font-size="12.5" fill="#6f685d" font-weight="400" text-anchor="start" font-family="system-ui, -apple-system, 'Segoe UI', sans-serif">All</text><rect x="40" y="366" width="210" height="40" rx="10" fill="#fbfaf7" stroke="#e6e1d8" stroke-width="1.5"/><text x="56" y="391" font-size="12.5" fill="#6f685d" font-weight="400" text-anchor="start" font-family="system-ui, -apple-system, 'Segoe UI', sans-serif">Unfiltered</text><rect x="40" y="414" width="210" height="40" rx="10" fill="#fbfaf7" stroke="#e6e1d8" stroke-width="1.5"/><text x="56" y="439" font-size="12.5" fill="#6f685d" font-weight="400" text-anchor="start" font-family="system-ui, -apple-system, 'Segoe UI', sans-serif">Bookmarks</text><rect x="40" y="462" width="210" height="40" rx="10" fill="#fbfaf7" stroke="#e6e1d8" stroke-width="1.5"/><text x="56" y="487" font-size="12.5" fill="#6f685d" font-weight="400" text-anchor="start" font-family="system-ui, -apple-system, 'Segoe UI', sans-serif">Filters: type · source · tag · color</text><line x1="373.0" y1="220" x2="373.0" y2="240" stroke="#9a9387" stroke-width="2"/><rect x="268" y="240" width="210" height="58" rx="16" fill="#ffffff" stroke="#e6e1d8" stroke-width="1.5"/><circle cx="292" cy="270" r="5" fill="#6b8f71"/><text x="308" y="274.0" font-size="16.5" fill="#16171b" font-weight="700" text-anchor="start" font-family="system-ui, -apple-system, 'Segoe UI', sans-serif">Collections</text><rect x="268" y="318" width="210" height="40" rx="10" fill="#fbfaf7" stroke="#e6e1d8" stroke-width="1.5"/><text x="284" y="343" font-size="12.5" fill="#6f685d" font-weight="400" text-anchor="start" font-family="system-ui, -apple-system, 'Segoe UI', sans-serif">Collection (brief + saves)</text><rect x="268" y="366" width="210" height="40" rx="10" fill="#fbfaf7" stroke="#e6e1d8" stroke-width="1.5"/><text x="284" y="391" font-size="12.5" fill="#6f685d" font-weight="400" text-anchor="start" font-family="system-ui, -apple-system, 'Segoe UI', sans-serif">Add existing · auto-moodboard</text><rect x="268" y="414" width="210" height="40" rx="10" fill="#fbfaf7" stroke="#e6e1d8" stroke-width="1.5"/><text x="284" y="439" font-size="12.5" fill="#6f685d" font-weight="400" text-anchor="start" font-family="system-ui, -apple-system, 'Segoe UI', sans-serif">Browse by color</text><line x1="601.0" y1="220" x2="601.0" y2="240" stroke="#9a9387" stroke-width="2"/><rect x="496" y="240" width="210" height="58" rx="16" fill="#ffffff" stroke="#e6e1d8" stroke-width="1.5"/><circle cx="520" cy="270" r="5" fill="#7a5cc2"/><text x="536" y="274.0" font-size="16.5" fill="#16171b" font-weight="700" text-anchor="start" font-family="system-ui, -apple-system, 'Segoe UI', sans-serif">Moodboards</text><rect x="496" y="318" width="210" height="40" rx="10" fill="#fbfaf7" stroke="#e6e1d8" stroke-width="1.5"/><text x="512" y="343" font-size="12.5" fill="#6f685d" font-weight="400" text-anchor="start" font-family="system-ui, -apple-system, 'Segoe UI', sans-serif">Infinite canvas</text><rect x="496" y="366" width="210" height="40" rx="10" fill="#fbfaf7" stroke="#e6e1d8" stroke-width="1.5"/><text x="512" y="391" font-size="12.5" fill="#6f685d" font-weight="400" text-anchor="start" font-family="system-ui, -apple-system, 'Segoe UI', sans-serif">Notes · arrows · present</text><line x1="829.0" y1="220" x2="829.0" y2="240" stroke="#9a9387" stroke-width="2"/><rect x="724" y="240" width="210" height="58" rx="16" fill="#ffffff" stroke="#e6e1d8" stroke-width="1.5"/><circle cx="748" cy="270" r="5" fill="#c24f6f"/><text x="764" y="274.0" font-size="16.5" fill="#16171b" font-weight="700" text-anchor="start" font-family="system-ui, -apple-system, 'Segoe UI', sans-serif">Storyboards</text><rect x="724" y="318" width="210" height="40" rx="10" fill="#fbfaf7" stroke="#e6e1d8" stroke-width="1.5"/><text x="740" y="343" font-size="12.5" fill="#6f685d" font-weight="400" text-anchor="start" font-family="system-ui, -apple-system, 'Segoe UI', sans-serif">Ordered frames</text><rect x="724" y="366" width="210" height="40" rx="10" fill="#fbfaf7" stroke="#e6e1d8" stroke-width="1.5"/><text x="740" y="391" font-size="12.5" fill="#6f685d" font-weight="400" text-anchor="start" font-family="system-ui, -apple-system, 'Segoe UI', sans-serif">Captions · shot list</text><line x1="1057.0" y1="220" x2="1057.0" y2="240" stroke="#9a9387" stroke-width="2"/><rect x="952" y="240" width="210" height="58" rx="16" fill="#ffffff" stroke="#e6e1d8" stroke-width="1.5"/><circle cx="976" cy="270" r="5" fill="#c2603f"/><text x="992" y="274.0" font-size="16.5" fill="#16171b" font-weight="700" text-anchor="start" font-family="system-ui, -apple-system, 'Segoe UI', sans-serif">Kits</text><rect x="952" y="318" width="210" height="40" rx="10" fill="#fbfaf7" stroke="#e6e1d8" stroke-width="1.5"/><text x="968" y="343" font-size="12.5" fill="#6f685d" font-weight="400" text-anchor="start" font-family="system-ui, -apple-system, 'Segoe UI', sans-serif">Palette + fonts + refs</text><rect x="952" y="366" width="210" height="40" rx="10" fill="#fbfaf7" stroke="#e6e1d8" stroke-width="1.5"/><text x="968" y="391" font-size="12.5" fill="#6f685d" font-weight="400" text-anchor="start" font-family="system-ui, -apple-system, 'Segoe UI', sans-serif">Export CSS</text><rect x="40" y="560" width="250" height="58" rx="16" fill="#faf9f6" stroke="#e6e1d8" stroke-width="1.5"/><circle cx="64" cy="590" r="5" fill="#9a9387"/><text x="80" y="594" font-size="16.5" fill="#16171b" font-weight="700" text-anchor="start" font-family="system-ui, -apple-system, 'Segoe UI', sans-serif">Settings</text><text x="62" y="618" font-size="13" fill="#6f685d" font-weight="400" text-anchor="start" font-family="system-ui, -apple-system, 'Segoe UI', sans-serif">12 panels</text><rect x="320" y="560" width="190" height="38" rx="9" fill="#fbfaf7" stroke="#e6e1d8" stroke-width="1.5"/><text x="334" y="584" font-size="12" fill="#6f685d" font-weight="400" text-anchor="start" font-family="system-ui, -apple-system, 'Segoe UI', sans-serif">Stats</text><rect x="524" y="560" width="190" height="38" rx="9" fill="#fbfaf7" stroke="#e6e1d8" stroke-width="1.5"/><text x="538" y="584" font-size="12" fill="#6f685d" font-weight="400" text-anchor="start" font-family="system-ui, -apple-system, 'Segoe UI', sans-serif">Appearance · Color themes</text><rect x="728" y="560" width="190" height="38" rx="9" fill="#fbfaf7" stroke="#e6e1d8" stroke-width="1.5"/><text x="742" y="584" font-size="12" fill="#6f685d" font-weight="400" text-anchor="start" font-family="system-ui, -apple-system, 'Segoe UI', sans-serif">Filters</text><rect x="932" y="560" width="190" height="38" rx="9" fill="#fbfaf7" stroke="#e6e1d8" stroke-width="1.5"/><text x="946" y="584" font-size="12" fill="#6f685d" font-weight="400" text-anchor="start" font-family="system-ui, -apple-system, 'Segoe UI', sans-serif">Libraries</text><rect x="320" y="606" width="190" height="38" rx="9" fill="#fbfaf7" stroke="#e6e1d8" stroke-width="1.5"/><text x="334" y="630" font-size="12" fill="#6f685d" font-weight="400" text-anchor="start" font-family="system-ui, -apple-system, 'Segoe UI', sans-serif">Links</text><rect x="524" y="606" width="190" height="38" rx="9" fill="#fbfaf7" stroke="#e6e1d8" stroke-width="1.5"/><text x="538" y="630" font-size="12" fill="#6f685d" font-weight="400" text-anchor="start" font-family="system-ui, -apple-system, 'Segoe UI', sans-serif">Tags</text><rect x="728" y="606" width="190" height="38" rx="9" fill="#fbfaf7" stroke="#e6e1d8" stroke-width="1.5"/><text x="742" y="630" font-size="12" fill="#6f685d" font-weight="400" text-anchor="start" font-family="system-ui, -apple-system, 'Segoe UI', sans-serif">Capture</text><rect x="932" y="606" width="190" height="38" rx="9" fill="#fbfaf7" stroke="#e6e1d8" stroke-width="1.5"/><text x="946" y="630" font-size="12" fill="#6f685d" font-weight="400" text-anchor="start" font-family="system-ui, -apple-system, 'Segoe UI', sans-serif">Sound</text><rect x="320" y="652" width="190" height="38" rx="9" fill="#fbfaf7" stroke="#e6e1d8" stroke-width="1.5"/><text x="334" y="676" font-size="12" fill="#6f685d" font-weight="400" text-anchor="start" font-family="system-ui, -apple-system, 'Segoe UI', sans-serif">Install</text><rect x="524" y="652" width="190" height="38" rx="9" fill="#fbfaf7" stroke="#e6e1d8" stroke-width="1.5"/><text x="538" y="676" font-size="12" fill="#6f685d" font-weight="400" text-anchor="start" font-family="system-ui, -apple-system, 'Segoe UI', sans-serif">Sync</text><rect x="728" y="652" width="190" height="38" rx="9" fill="#fbfaf7" stroke="#e6e1d8" stroke-width="1.5"/><text x="742" y="676" font-size="12" fill="#6f685d" font-weight="400" text-anchor="start" font-family="system-ui, -apple-system, 'Segoe UI', sans-serif">Data · Export/Import</text><rect x="932" y="652" width="190" height="38" rx="9" fill="#fbfaf7" stroke="#e6e1d8" stroke-width="1.5"/><text x="946" y="676" font-size="12" fill="#6f685d" font-weight="400" text-anchor="start" font-family="system-ui, -apple-system, 'Segoe UI', sans-serif">About</text><line x1="290" y1="589" x2="306" y2="589" stroke="#9a9387" stroke-width="2"/></svg>